# Blender v3.0.1 OBJ File: 'pink-mushroom.blend'
# www.blender.org
mtllib pink-mushroom.mtl
o Mushroom.010_Cylinder.019
v -0.284680 2.086795 -0.249065
v -0.000000 0.908145 -0.521349
v -0.402599 2.086795 0.035615
v 0.393832 0.908145 -0.358220
v -0.284680 2.086795 0.320295
v 0.556962 0.908145 0.035612
v -0.000000 2.086795 0.438214
v 0.393832 0.908145 0.429445
v 0.284680 2.086795 0.320295
v -0.000000 0.908145 0.592575
v 0.402598 2.086795 0.035615
v -0.393832 0.908145 0.429445
v -0.000000 2.086795 -0.366983
v -0.556963 0.908145 0.035612
v 0.284680 2.086795 -0.249065
v -0.393832 0.908145 -0.358220
v 0.000000 0.000000 -0.222928
v 0.000000 0.262897 -0.507485
v 0.000000 0.077001 -0.424141
v 0.157634 0.000000 -0.157634
v 0.358846 0.262897 -0.358846
v 0.299913 0.077001 -0.299913
v 0.222928 0.000000 0.000000
v 0.507485 0.262897 0.000000
v 0.424141 0.077001 0.000000
v 0.157634 0.000000 0.157634
v 0.358846 0.262897 0.358846
v 0.299913 0.077001 0.299913
v -0.000000 0.000000 0.222928
v -0.000000 0.262897 0.507485
v -0.000000 0.077001 0.424141
v -0.157634 0.000000 0.157634
v -0.358846 0.262897 0.358846
v -0.299913 0.077001 0.299913
v -0.222928 0.000000 -0.000000
v -0.507485 0.262897 -0.000000
v -0.424141 0.077001 -0.000000
v -0.157634 0.000000 -0.157634
v -0.358846 0.262897 -0.358846
v -0.299913 0.077001 -0.299913
v -0.011247 3.366816 -1.916243
v -1.312402 3.200078 -1.356869
v -1.840925 3.138632 -0.033760
v -1.287211 3.218472 1.278015
v 0.024379 3.392830 1.810027
v 1.325537 3.559569 1.250654
v 1.854060 3.621015 -0.072455
v 1.300345 3.541174 -1.384230
v -0.037956 3.625778 -1.238393
v -0.864707 3.519833 -0.882970
v -1.200528 3.480790 -0.042269
v -0.848700 3.531521 0.791230
v -0.015319 3.642308 1.129269
v 0.811433 3.748253 0.773845
v 1.147255 3.787296 -0.066856
v 0.795426 3.736565 -0.900355
v -0.052469 3.793089 -0.538565
v -0.389833 3.749857 -0.393531
v -0.526869 3.733925 -0.050475
v -0.383302 3.754627 0.289643
v -0.043232 3.799834 0.427584
v 0.294132 3.843066 0.282549
v 0.431168 3.858998 -0.060508
v 0.287601 3.838297 -0.400625
v 0.101441 3.187994 -0.302979
v -0.244902 3.119983 -0.156779
v -0.101442 3.148155 0.196179
v 0.244901 3.216166 0.049979
v 0.054660 3.137112 -0.050998
v 0.041545 2.832202 -1.422761
v 1.007221 2.960577 -1.031054
v 1.414899 3.019360 -0.065244
v 1.025765 2.974120 0.908909
v 0.067775 2.851356 1.320757
v -0.897896 2.722984 0.929054
v -1.305578 2.664199 -0.036755
v -0.916448 2.709440 -1.010909
v 0.035998 3.202860 -0.350329
v 0.050767 2.902601 -0.461104
v -0.000000 1.444300 -0.562186
v -0.000000 1.980240 -0.281305
v 0.263144 1.339492 -0.588831
v 0.121278 1.980240 -0.257181
v 0.430375 1.444300 -0.383918
v 0.224093 1.980240 -0.188483
v 0.635285 1.339492 -0.216689
v 0.292792 1.980240 -0.085668
v 0.608643 1.444300 0.046456
v 0.316916 1.980240 0.035611
v 0.635285 1.339492 0.309599
v 0.292792 1.980240 0.156890
v 0.430375 1.444300 0.476832
v 0.224093 1.980240 0.259705
v 0.263144 1.339492 0.681741
v 0.121278 1.980240 0.328403
v -0.000000 1.444300 0.655100
v -0.000000 1.980240 0.352527
v -0.263144 1.339492 0.681741
v -0.121279 1.980240 0.328403
v -0.430376 1.444300 0.476832
v -0.224094 1.980240 0.259705
v -0.635286 1.339492 0.309599
v -0.292792 1.980240 0.156890
v -0.608643 1.444300 0.046456
v -0.316916 1.980240 0.035611
v -0.635286 1.339492 -0.216689
v -0.292792 1.980240 -0.085668
v -0.430376 1.444300 -0.383918
v -0.224094 1.980240 -0.188483
v -0.263144 1.339492 -0.588831
v -0.121279 1.980240 -0.257181
v 0.221431 2.877811 -0.474363
v 0.134425 3.211388 -0.329962
v 0.323899 2.930393 -0.345317
v 0.217379 3.221315 -0.273437
v 0.455877 2.911407 -0.235147
v 0.272232 3.231135 -0.189352
v 0.434206 2.957548 -0.069864
v 0.290632 3.239349 -0.090513
v 0.451703 2.934498 0.100661
v 0.269778 3.244708 0.008035
v 0.317072 2.968160 0.203900
v 0.212846 3.246395 0.091287
v 0.211354 2.933558 0.336349
v 0.128502 3.244155 0.146570
v 0.041112 2.956011 0.315608
v 0.029587 3.238328 0.165473
v -0.124376 2.909138 0.333856
v -0.068840 3.229801 0.145106
v -0.232019 2.928219 0.199821
v -0.151794 3.219872 0.088578
v -0.358822 2.875541 0.094642
v -0.206646 3.210053 0.004494
v -0.342326 2.901064 -0.075633
v -0.225047 3.201839 -0.094345
v -0.354647 2.852450 -0.241168
v -0.204193 3.196480 -0.192890
v -0.225193 2.890453 -0.349394
v -0.147260 3.194793 -0.276148
v -0.114299 2.853390 -0.476856
v -0.062916 3.197033 -0.331429
v 0.029712 3.042532 -2.047733
v 0.043342 2.912406 -1.965227
v -1.293469 2.741047 -1.390179
v -1.364566 2.863860 -1.448326
v -1.836345 2.677914 -0.030817
v -1.930914 2.798016 -0.030524
v -1.267613 2.759949 1.316933
v -1.337571 2.883571 1.375134
v 0.079952 2.939146 1.863895
v 0.067888 3.070408 1.945221
v 1.417280 3.110573 1.289305
v 1.462168 3.249080 1.345815
v 1.960611 3.173760 -0.070578
v 2.028516 3.314924 -0.071987
v 1.391363 3.091658 -1.418785
v 1.435173 3.229369 -1.477645
vt 0.463717 0.869886
vt 0.508790 0.869644
vt 0.508582 0.866089
vt 0.463528 0.866647
vt 0.464174 0.877706
vt 0.509291 0.878226
vt 0.509792 0.886808
vt 0.464631 0.885526
vt 0.510000 0.890363
vt 0.464820 0.888765
vt 0.509792 0.886808
vt 0.464631 0.885526
vt 0.509291 0.878226
vt 0.464174 0.877706
vt 0.591622 0.877758
vt 0.591984 0.883962
vt 0.591259 0.871554
vt 0.591109 0.868985
vt 0.668111 0.869942
vt 0.463717 0.869886
vt 0.508790 0.869644
vt 0.450807 0.871244
vt 0.450649 0.868537
vt 0.445610 0.874376
vt 0.445527 0.872953
vt 0.451189 0.877780
vt 0.445810 0.877811
vt 0.451571 0.884316
vt 0.446011 0.881246
vt 0.451729 0.887023
vt 0.446094 0.882669
vt 0.451571 0.884316
vt 0.446011 0.881246
vt 0.451189 0.877780
vt 0.445810 0.877811
vt 0.450807 0.871244
vt 0.445610 0.874376
vt 0.591984 0.883962
vt 0.591622 0.877758
vt 0.592134 0.886531
vt 0.591259 0.871554
vt 0.044618 0.191773
vt 0.054827 0.191339
vt 0.072569 0.191270
vt 0.063041 0.191675
vt 0.663546 0.873155
vt 0.670528 0.877622
vt 0.665963 0.880835
vt 0.029054 0.190342
vt 0.033942 0.191360
vt 0.053079 0.191290
vt 0.048516 0.190340
vt 0.058590 0.190312
vt 0.053701 0.189295
vt 0.071518 0.189362
vt 0.076080 0.190312
vt 0.032816 0.189316
vt 0.052027 0.189382
vt 0.682408 0.634153
vt 0.679049 0.633454
vt 0.686539 0.633173
vt 0.691230 0.634149
vt 0.085581 0.190316
vt 0.083350 0.190925
vt 0.672808 0.635157
vt 0.679823 0.634858
vt 0.687620 0.635134
vt 0.677824 0.635550
vt 0.662114 0.634174
vt 0.665473 0.634873
vt 0.667585 0.635154
vt 0.662897 0.634178
vt 0.671713 0.633170
vt 0.676296 0.632778
vt 0.664699 0.633469
vt 0.666505 0.633194
vt 0.076352 0.189468
vt 0.070298 0.189725
vt 0.083442 0.190080
vt 0.085912 0.189975
vt 0.077297 0.191182
vt 0.070966 0.190937
vt 0.068067 0.190334
vt 0.082682 0.189713
vt 0.061555 0.188977
vt 0.088495 0.190074
vt 0.089678 0.190321
vt 0.088768 0.190569
vt 0.086298 0.190674
vt 0.083715 0.190574
vt 0.082532 0.190328
vt 0.043025 0.188882
vt 0.689136 0.634164
vt 0.377498 0.863448
vt 0.415292 0.869356
vt 0.415323 0.869882
vt 0.370143 0.862909
vt 0.621220 0.877052
vt 0.645409 0.880084
vt 0.645792 0.879670
vt 0.624678 0.877376
vt 0.415410 0.871379
vt 0.377725 0.867333
vt 0.623971 0.879815
vt 0.645323 0.881290
vt 0.415541 0.873619
vt 0.370617 0.871019
vt 0.621455 0.882188
vt 0.645547 0.883104
vt 0.415695 0.876262
vt 0.378273 0.876712
vt 0.625061 0.885776
vt 0.646047 0.885249
vt 0.415850 0.878905
vt 0.371287 0.882488
vt 0.623495 0.889497
vt 0.646746 0.887400
vt 0.415981 0.881146
vt 0.378821 0.886090
vt 0.627309 0.891768
vt 0.647539 0.889228
vt 0.416068 0.882643
vt 0.371761 0.890597
vt 0.626146 0.894697
vt 0.648305 0.890456
vt 0.416099 0.883169
vt 0.379048 0.889975
vt 0.629397 0.894280
vt 0.648926 0.890896
vt 0.416068 0.882643
vt 0.371761 0.890597
vt 0.627855 0.894741
vt 0.649309 0.890482
vt 0.415981 0.881146
vt 0.378821 0.886090
vt 0.630104 0.891841
vt 0.649396 0.889277
vt 0.415850 0.878905
vt 0.371287 0.882488
vt 0.627621 0.889605
vt 0.649172 0.887463
vt 0.415695 0.876262
vt 0.378273 0.876712
vt 0.629014 0.885880
vt 0.648672 0.885318
vt 0.415541 0.873619
vt 0.370617 0.871019
vt 0.625580 0.882296
vt 0.647972 0.883167
vt 0.415410 0.871379
vt 0.377725 0.867333
vt 0.622929 0.877096
vt 0.646414 0.880111
vt 0.647179 0.881339
vt 0.626766 0.879888
vt 0.415323 0.869882
vt 0.370143 0.862909
vt 0.035590 0.188942
vt 0.025798 0.189358
vt 0.022191 0.190342
vt 0.026878 0.191318
vt 0.037118 0.191714
vt 0.046913 0.191298
vt 0.050524 0.190313
vt 0.045832 0.189337
vn -0.7011 -0.1194 -0.7029
vn -0.7055 0.0671 -0.7055
vn 0.0000 0.0732 -0.9973
vn -0.0000 -0.1068 -0.9943
vn 0.9887 -0.1498 -0.0000
vn 0.9986 0.0524 -0.0000
vn 0.7066 0.0378 0.7066
vn 0.6956 -0.1797 0.6956
vn -0.0000 0.0317 0.9995
vn -0.0000 -0.1919 0.9814
vn -0.7066 0.0378 0.7066
vn -0.6956 -0.1797 0.6956
vn -0.9986 0.0524 -0.0000
vn -0.9887 -0.1498 0.0000
vn 0.9891 0.1338 -0.0613
vn 0.6516 0.1636 0.7407
vn 0.7443 0.1205 -0.6569
vn -0.0605 0.1090 -0.9922
vn 0.3947 0.1265 -0.9101
vn 0.7011 -0.1194 -0.7029
vn 0.7055 0.0671 -0.7055
vn 0.5173 -0.6817 -0.5173
vn -0.0000 -0.6818 -0.7316
vn 0.1159 -0.9865 -0.1159
vn 0.0000 -0.9455 -0.3255
vn 0.7316 -0.6817 -0.0000
vn 0.3255 -0.9455 -0.0000
vn 0.5173 -0.6817 0.5173
vn 0.1159 -0.9865 0.1159
vn 0.0000 -0.6817 0.7316
vn 0.0000 -0.9455 0.3255
vn -0.5173 -0.6818 0.5173
vn -0.1159 -0.9865 0.1159
vn -0.7316 -0.6818 0.0000
vn -0.3255 -0.9455 0.0000
vn -0.5173 -0.6818 -0.5173
vn -0.1159 -0.9865 -0.1159
vn -0.7401 0.1598 0.6532
vn -0.9875 0.1469 0.0566
vn 0.0556 0.1692 0.9840
vn -0.6609 0.1156 -0.7415
vn -0.0046 0.1145 0.9934
vn 0.6921 0.1982 0.6941
vn 0.3369 0.8381 0.4290
vn -0.0958 0.7827 0.6150
vn -0.9092 0.1742 -0.3783
vn 0.9019 0.2260 0.3682
vn -0.3687 0.2717 0.8889
vn -0.9999 -0.0124 0.0097
vn -0.7031 0.0277 0.7106
vn -0.5318 0.7247 0.4381
vn -0.7159 0.6982 0.0019
vn 0.9734 0.2288 -0.0109
vn 0.6787 0.1890 -0.7097
vn 0.3285 0.8320 -0.4470
vn 0.5126 0.8586 -0.0109
vn -0.7181 0.0183 -0.6957
vn -0.5402 0.7186 -0.4380
vn 0.0941 -0.9955 0.0060
vn 0.1047 -0.9940 0.0311
vn 0.3592 -0.9021 -0.2390
vn 0.4576 -0.8892 0.0010
vn 0.1838 0.9829 -0.0086
vn 0.0960 0.9727 0.2112
vn 0.1291 -0.9912 -0.0300
vn 0.1042 -0.9944 -0.0192
vn 0.3632 -0.8992 0.2441
vn 0.1247 -0.9269 0.3539
vn 0.1650 -0.9863 0.0053
vn 0.1543 -0.9878 -0.0199
vn -0.1266 -0.9573 0.2601
vn -0.2365 -0.9716 0.0082
vn 0.1298 -0.9907 0.0414
vn 0.1180 -0.9314 -0.3444
vn 0.1548 -0.9875 0.0307
vn -0.1321 -0.9605 -0.2448
vn -0.1261 0.9407 -0.3149
vn -0.3423 0.9130 -0.2220
vn -0.2791 0.9474 -0.1564
vn -0.1296 0.9812 -0.1432
vn -0.1202 0.9450 0.3041
vn -0.3381 0.9160 0.2157
vn -0.4301 0.9028 -0.0022
vn 0.0918 0.9697 -0.2266
vn -0.1076 0.7740 -0.6239
vn 0.0233 0.9869 -0.1596
vn 0.0082 0.9999 -0.0071
vn 0.0262 0.9890 0.1453
vn -0.1270 0.9831 0.1320
vn -0.2762 0.9496 0.1485
vn -0.2647 0.9643 -0.0042
vn -0.0237 0.1015 -0.9945
vn 0.1295 -0.9916 0.0057
vn -0.0000 0.4734 -0.8809
vn 0.3351 0.4830 -0.8090
vn 0.3352 0.4830 -0.8089
vn -0.3612 0.3816 -0.8509
vn -0.3612 0.3816 -0.8508
vn -0.0204 0.3770 -0.9260
vn -0.0205 0.3770 -0.9260
vn 0.6215 0.4772 -0.6213
vn 0.6214 0.4772 -0.6214
vn -0.6534 0.3622 -0.6647
vn -0.6529 0.3622 -0.6652
vn 0.8056 0.4895 -0.3337
vn -0.8416 0.3888 -0.3750
vn -0.8415 0.3888 -0.3751
vn 0.8738 0.4863 -0.0000
vn -0.9195 0.3911 -0.0384
vn -0.9195 0.3911 -0.0383
vn 0.8009 0.4985 0.3317
vn -0.8502 0.4342 0.2977
vn 0.6143 0.4952 0.6143
vn -0.6694 0.4470 0.5933
vn -0.6695 0.4470 0.5933
vn 0.3303 0.5048 0.7975
vn 0.3304 0.5048 0.7975
vn -0.3818 0.4917 0.7826
vn -0.0000 0.4988 0.8667
vn -0.0427 0.4978 0.8663
vn -0.3303 0.5048 0.7975
vn -0.3304 0.5048 0.7975
vn 0.2986 0.5281 0.7949
vn 0.2985 0.5281 0.7950
vn -0.6144 0.4952 0.6142
vn -0.6143 0.4952 0.6144
vn 0.5999 0.5135 0.6136
vn 0.5997 0.5135 0.6138
vn -0.8009 0.4985 0.3317
vn -0.8009 0.4985 0.3318
vn 0.7917 0.5214 0.3185
vn 0.7916 0.5214 0.3185
vn -0.8738 0.4863 0.0001
vn -0.8738 0.4863 0.0000
vn 0.8746 0.4843 -0.0225
vn 0.8746 0.4843 -0.0224
vn -0.8056 0.4895 -0.3337
vn 0.7997 0.4751 -0.3670
vn 0.7997 0.4751 -0.3671
vn -0.6213 0.4772 -0.6215
vn -0.6214 0.4772 -0.6214
vn 0.3185 0.4171 -0.8513
vn 0.3184 0.4170 -0.8513
vn 0.6149 0.4274 -0.6627
vn 0.6149 0.4275 -0.6627
vn -0.3351 0.4830 -0.8090
vn -0.3349 0.4830 -0.8090
usemtl pink-mushroom_material
s 1
f 39/1/1 16/2/2 2/3/3 18/4/4
f 24/5/5 6/6/6 8/7/7 27/8/8
f 27/8/8 8/7/7 10/9/9 30/10/10
f 30/10/10 10/9/9 12/11/11 33/12/12
f 33/12/12 12/11/11 14/13/13 36/14/14
f 36/14/14 14/13/13 16/2/2 39/1/1
f 8/7/7 6/6/6 11/15/15 9/16/16
f 15/17/17 13/18/18 65/19/19
f 21/20/20 4/21/21 6/6/6 24/5/5
f 18/4/4 2/3/3 4/21/21 21/20/20
f 18/4/4 21/20/20 22/22/22 19/23/23
f 19/23/23 22/22/22 20/24/24 17/25/25
f 21/20/20 24/5/5 25/26/26 22/22/22
f 22/22/22 25/26/26 23/27/27 20/24/24
f 24/5/5 27/8/8 28/28/28 25/26/26
f 25/26/26 28/28/28 26/29/29 23/27/27
f 27/8/8 30/10/10 31/30/30 28/28/28
f 28/28/28 31/30/30 29/31/31 26/29/29
f 30/10/10 33/12/12 34/32/32 31/30/30
f 31/30/30 34/32/32 32/33/33 29/31/31
f 33/12/12 36/14/14 37/34/34 34/32/32
f 34/32/32 37/34/34 35/35/35 32/33/33
f 36/14/14 39/1/1 40/36/36 37/34/34
f 37/34/34 40/36/36 38/37/37 35/35/35
f 39/1/1 18/4/4 19/23/23 40/36/36
f 40/36/36 19/23/23 17/25/25 38/37/37
f 14/13/13 12/11/11 5/38/38 3/39/39
f 10/9/9 8/7/7 9/16/16 7/40/40
f 16/2/2 14/13/13 3/39/39 1/41/41
f 6/6/6 4/21/21 15/17/17 11/15/15
f 12/11/11 10/9/9 7/40/40 5/38/38
f 2/3/3 16/2/2 1/41/41 13/18/18
f 4/21/21 2/3/3 13/18/18 15/17/17
f 151/42/42 153/43/43 46/44/44 45/45/45
f 13/18/18 1/41/41 66/46/46 65/19/19
f 11/15/15 15/17/17 65/19/19 68/47/47
f 5/38/38 7/40/40 67/48/48
f 3/39/39 5/38/38 67/48/48 66/46/46
f 9/16/16 11/15/15 68/47/47
f 7/40/40 9/16/16 68/47/47 67/48/48
f 1/41/41 3/39/39 66/46/46
f 147/49/49 149/50/50 44/51/51 43/52/52
f 155/53/53 157/54/54 48/55/55 47/56/56
f 153/43/43 155/53/53 47/56/56 46/44/44
f 149/50/50 151/42/42 45/45/45 44/51/51
f 145/57/57 147/49/49 43/52/52 42/58/58
f 72/59/59 71/60/60 156/61/61 154/62/62
f 46/44/44 47/56/56 55/63/63 54/64/64
f 74/65/65 73/66/66 152/67/67 150/68/68
f 76/69/69 75/70/70 148/71/71 146/72/72
f 71/60/60 70/73/73 143/74/74 156/61/61
f 70/73/73 77/75/75 144/76/76 143/74/74
f 73/66/66 72/59/59 154/62/62 152/67/67
f 75/70/70 74/65/65 150/68/68 148/71/71
f 77/75/75 76/69/69 146/72/72 144/76/76
f 49/77/77 50/78/78 58/79/79 57/80/80
f 44/51/51 45/45/45 53/81/81 52/82/82
f 42/58/58 43/52/52 51/83/83 50/78/78
f 47/56/56 48/55/55 56/84/84 55/63/63
f 45/45/45 46/44/44 54/64/64 53/81/81
f 43/52/52 44/51/51 52/82/82 51/83/83
f 41/85/85 42/58/58 50/78/78 49/77/77
f 48/55/55 41/85/85 49/77/77 56/84/84
f 56/84/84 49/77/77 57/80/80 64/86/86
f 54/64/64 55/63/63 63/87/87 62/88/88
f 52/82/82 53/81/81 61/89/89 60/90/90
f 50/78/78 51/83/83 59/91/91 58/79/79
f 55/63/63 56/84/84 64/86/86 63/87/87
f 53/81/81 54/64/64 62/88/88 61/89/89
f 51/83/83 52/82/82 60/90/90 59/91/91
f 157/54/54 142/92/92 41/85/85 48/55/55
f 69/93/93 70/73/73 71/60/60
f 69/93/93 71/60/60 72/59/59
f 69/93/93 72/59/59 73/66/66
f 69/93/93 73/66/66 74/65/65
f 69/93/93 74/65/65 75/70/70
f 69/93/93 75/70/70 76/69/69
f 69/93/93 76/69/69 77/75/75
f 69/93/93 77/75/75 70/73/73
f 80/94/94 81/95/94 83/96/95 82/97/96
f 140/98/97 141/99/98 78/100/99 79/101/100
f 82/97/96 83/96/95 85/102/101 84/103/102
f 138/104/103 139/105/104 141/99/98 140/98/97
f 84/103/102 85/102/101 87/106/105 86/107/105
f 136/108/106 137/109/107 139/105/104 138/104/103
f 86/107/105 87/106/105 89/110/108 88/111/108
f 134/112/109 135/113/110 137/109/107 136/108/106
f 88/111/108 89/110/108 91/114/111 90/115/111
f 132/116/112 133/117/112 135/113/110 134/112/109
f 90/115/111 91/114/111 93/118/113 92/119/113
f 130/120/114 131/121/115 133/117/112 132/116/112
f 92/119/113 93/118/113 95/122/116 94/123/117
f 128/124/118 129/125/118 131/121/115 130/120/114
f 94/123/117 95/122/116 97/126/119 96/127/119
f 126/128/120 127/129/120 129/125/118 128/124/118
f 96/127/119 97/126/119 99/130/121 98/131/122
f 124/132/123 125/133/124 127/129/120 126/128/120
f 98/131/122 99/130/121 101/134/125 100/135/126
f 122/136/127 123/137/128 125/133/124 124/132/123
f 100/135/126 101/134/125 103/138/129 102/139/130
f 120/140/131 121/141/132 123/137/128 122/136/127
f 102/139/130 103/138/129 105/142/133 104/143/134
f 118/144/135 119/145/136 121/141/132 120/140/131
f 104/143/134 105/142/133 107/146/137 106/147/137
f 116/148/138 117/149/139 119/145/136 118/144/135
f 106/147/137 107/146/137 109/150/140 108/151/141
f 112/152/142 113/153/143 115/154/144 114/155/145
f 114/155/145 115/154/144 117/149/139 116/148/138
f 108/151/141 109/150/140 111/156/146 110/157/147
f 110/157/147 111/156/146 81/95/94 80/94/94
f 79/101/100 78/100/99 113/153/143 112/152/142
f 143/158/74 144/159/76 145/57/57 142/92/92
f 144/159/76 146/160/72 147/49/49 145/57/57
f 146/160/72 148/161/71 149/50/50 147/49/49
f 148/161/71 150/162/68 151/42/42 149/50/50
f 150/162/68 152/163/67 153/43/43 151/42/42
f 152/163/67 154/164/62 155/53/53 153/43/43
f 154/164/62 156/165/61 157/54/54 155/53/53
f 156/165/61 143/158/74 142/92/92 157/54/54
f 142/92/92 145/57/57 42/58/58 41/85/85
f 38/37/37 17/25/25 20/24/24
f 20/24/24 23/27/27 26/29/29
f 26/29/29 29/31/31 32/33/33
f 32/33/33 35/35/35 38/37/37
f 57/80/80 59/91/91 61/89/89 63/87/87
f 63/87/87 64/86/86 57/80/80
f 57/80/80 58/79/79 59/91/91
f 59/91/91 60/90/90 61/89/89
f 61/89/89 62/88/88 63/87/87
f 20/24/24 26/29/29 32/33/33 38/37/37
